#!OML:ASF I:\golf\golf\golf 2\Subject 1\2002-09-07\Subject1.ASF
:FULLY-SPECIFIED
:DEGREES
232
root -6.66631 17.7239 1.43279 -8.40531 57.5619 -22.9732
lowerback 1.77999 -5.18517 -8.74559
upperback 4.70782 -6.81807 0.545521
thorax 5.04218 -3.75008 5.18978
lowerneck -9.04404 14.4297 3.90575
upperneck 29.0679 24.7432 -12.21
head 13.5038 10.128 -1.47456
rclavicle -9.46215e-014 3.18055e-014
rhumerus -11.1878 -7.94254 -89.3658
rradius 81.5871
rwrist -54.1174
rhand -53.5487 10.9465
rfingers 7.12502
rthumb -25.9912 -17.296
lclavicle -9.46215e-014 3.18055e-014
lhumerus 77.1985 -68.0668 37.6685
lradius 26.4023
lwrist 3.33521
lhand -9.39429 21.409
lfingers 7.12502
lthumb -163.433 -129.278
rfemur -30.9517 11.509 23.1732
rtibia 28.2238
rfoot -8.24595 9.31887
rtoes 5.78547
lfemur -11.522 15.4569 5.53212
ltibia 30.434
lfoot -9.60622 18.9478
ltoes -27.1051
233
root -6.66107 17.7217 1.45103 -7.70118 57.3057 -22.3241
lowerback 1.72747 -5.36755 -8.97495
upperback 4.53927 -7.05728 0.390465
thorax 4.94172 -3.86428 5.14152
lowerneck -8.70166 14.6139 4.1222
upperneck 28.5795 24.9455 -12.5138
head 13.3295 10.2537 -1.60745
rclavicle 1.66184e-013 -1.27222e-014
rhumerus -10.7621 -8.18411 -88.828
rradius 82.9086
rwrist -53.2659
rhand -53.8175 12.1644
rfingers 7.12502
rthumb -26.2486 -16.0401
lclavicle 1.66184e-013 -1.27222e-014
lhumerus 75.8367 -67.4158 40.3687
lradius 26.2857
lwrist 1.91902
lhand -9.65743 20.1229
lfingers 7.12502
lthumb -163.686 -130.543
rfemur -31.1931 11.5048 22.9821
rtibia 28.3826
rfoot -8.25674 9.62834
rtoes 6.35977
lfemur -11.4857 15.3755 5.22504
ltibia 30.4126
lfoot -8.41514 19.3905
ltoes -30.8966
234
root -6.65193 17.722 1.49305 -6.57636 56.5086 -21.1342
lowerback 1.40945 -5.38921 -9.72539
upperback 4.43606 -7.04464 0.213259
thorax 5.09075 -3.88391 5.33806
lowerneck -8.47788 14.8594 4.24007
upperneck 28.1059 25.2377 -12.7525
head 13.1736 10.4071 -1.67644
rclavicle -3.18055e-014 1.59028e-014
rhumerus -10.2136 -8.30409 -88.318
rradius 84.1812
rwrist -52.1732
rhand -54.5748 13.4599
rfingers 7.12502
rthumb -26.9734 -14.6346
lclavicle -3.18055e-014 1.59028e-014
lhumerus 75.3194 -66.7381 41.8841
lradius 26.4222
lwrist 0.828992
lhand -10.3804 18.506
lfingers 7.12502
lthumb -164.383 -132.104
rfemur -31.3461 11.9946 22.6356
rtibia 28.6197
rfoot -8.41284 9.99772
rtoes 6.26478
lfemur -10.8512 15.602 4.85206
ltibia 30.2741
lfoot -7.72778 19.6748
ltoes -33.7755
235
root -6.6431 17.7241 1.52993 -5.72638 55.8071 -20.2737
lowerback 1.17317 -5.47723 -10.1615
upperback 4.31557 -7.12912 0.0214545
thorax 5.14595 -3.93422 5.35009
lowerneck -8.35897 15.1188 4.35594
upperneck 27.7356 25.5636 -12.945
head 13.0809 10.5654 -1.7115
rclavicle 6.36111e-015 -3.81667e-014
rhumerus -9.59929 -9.3575 -88.4711
rradius 85.3565
rwrist -50.2972
rhand -55.0182 14.6869
rfingers 7.12502
rthumb -27.3976 -13.3413
lclavicle 6.36111e-015 -3.81667e-014
lhumerus 75.6141 -66.0516 42.377
lradius 26.6057
lwrist 0.224458
lhand -10.7485 16.7842
lfingers 7.12502
lthumb -164.737 -133.799
rfemur -31.5234 12.336 22.4269
rtibia 28.8556
rfoot -8.5275 10.4147
rtoes 6.41675
lfemur -10.2219 15.2421 4.70691
ltibia 30.0893
lfoot -8.75031 19.7482
ltoes -30.4539
236
root -6.63979 17.7206 1.56938 -5.45107 55.2112 -19.9589
lowerback 1.14288 -5.60383 -10.3415
upperback 4.22075 -7.29419 -0.0668993
thorax 5.10422 -4.01508 5.34444
lowerneck -8.33436 15.3501 4.38519
upperneck 27.4845 25.8756 -13.0798
head 13.035 10.7021 -1.70806
rclavicle -2.46493e-014 3.49861e-014
rhumerus -8.775 -8.15324 -87.393
rradius 86.6727
rwrist -50.1013
rhand -56.6684 17.0666
rfingers 7.12502
rthumb -28.9748 -10.7015
lclavicle -2.46493e-014 3.49861e-014
lhumerus 76.6597 -65.3133 42.2465
lradius 26.6068
lwrist 0.00312836
lhand -10.8266 15.4023
lfingers 7.12502
lthumb -164.812 -135.175
rfemur -31.5483 12.5475 22.5753
rtibia 29.007
rfoot -8.49233 10.8315
rtoes 7.21228
lfemur -9.66979 15.0637 4.91252
ltibia 29.9536
lfoot -9.53652 19.6187
ltoes -26.815
237
root -6.63463 17.7235 1.60961 -4.91628 54.6531 -19.3413
lowerback 1.09189 -5.75767 -10.7271
upperback 4.11508 -7.48992 -0.163035
thorax 5.09795 -4.11933 5.4366
lowerneck -8.33013 15.6137 4.27944
upperneck 27.2209 26.2368 -13.1648
head 12.9653 10.8538 -1.65995
rclavicle -5.96354e-014 5.725e-014
rhumerus -7.97259 -8.61433 -87.2403
rradius 87.6724
rwrist -48.8588
rhand -56.8791 18.6102
rfingers 7.12502
rthumb -29.1761 -9.1231
lclavicle -5.96354e-014 5.725e-014
lhumerus 77.4756 -64.5259 42.3925
lradius 26.5986
lwrist -0.269494
lhand -11.1053 14.0907
lfingers 7.12502
lthumb -165.081 -136.467
rfemur -31.4977 12.6479 22.5494
rtibia 29.0263
rfoot -8.66847 11.3358
rtoes 6.65988
lfemur -9.34098 15.4306 4.813
ltibia 29.9741
lfoot -9.03477 19.6802
ltoes -27.7215
238
root -6.62832 17.7358 1.64615 -4.53343 54.2006 -18.8819
lowerback 1.10619 -5.92579 -11.051
upperback 4.01438 -7.71516 -0.217468
thorax 5.06398 -4.23598 5.54251
lowerneck -8.35377 15.8722 4.22197
upperneck 26.9632 26.5965 -13.2849
head 12.9177 11.0039 -1.62693
rclavicle 1.11319e-014 1.59028e-014
rhumerus -7.52699 -10.0562 -87.7001
rradius 88.8021
rwrist -46.7316
rhand -56.4555 19.5229
rfingers 7.12502
rthumb -28.7714 -8.27992
lclavicle 1.11319e-014 1.59028e-014
lhumerus 78.0892 -63.7407 42.7268
lradius 26.7244
lwrist -0.678028
lhand -11.3411 12.6819
lfingers 7.12502
lthumb -165.308 -137.859
rfemur -31.3881 12.7963 22.5441
rtibia 29.0004
rfoot -8.95654 11.6682
rtoes 5.40451
lfemur -9.16765 15.9526 4.74326
ltibia 30.0904
lfoot -8.20312 19.7005
ltoes -29.3498
239
root -6.62095 17.7445 1.67556 -4.47192 53.8128 -18.8112
lowerback 1.21164 -6.10601 -11.0177
upperback 3.90661 -7.97454 -0.261853
thorax 4.92474 -4.35185 5.47567
lowerneck -8.4475 16.0962 4.25222
upperneck 26.7827 26.9013 -13.3748
head 12.9177 11.1304 -1.59609
rclavicle 3.18055e-015 -3.18055e-014
rhumerus -6.96678 -10.2446 -87.454
rradius 89.9689
rwrist -45.3619
rhand -56.7578 20.8143
rfingers 7.12502
rthumb -29.0602 -6.93909
lclavicle 3.18055e-015 -3.18055e-014
lhumerus 78.5723 -62.9699 43.1641
lradius 26.9171
lwrist -1.2113
lhand -11.4836 11.4445
lfingers 7.12502
lthumb -165.445 -139.086
rfemur -31.3098 12.8565 22.7511
rtibia 29.0035
rfoot -8.70779 12.0271
rtoes 6.57809
lfemur -8.96789 16.1232 4.90839
ltibia 30.1849
lfoot -7.85312 19.6978
ltoes -29.4384
240
root -6.61522 17.7432 1.70034 -4.37131 53.4411 -18.6878
lowerback 1.32874 -6.30175 -10.8714
upperback 3.8057 -8.25285 -0.382808
thorax 4.75912 -4.46962 5.2694
lowerneck -8.46932 16.3445 4.23844
upperneck 26.4164 27.1953 -13.4692
head 12.8182 11.2674 -1.57335
rclavicle -1.27222e-014 -6.36111e-015
rhumerus -6.04319 -10.1847 -87.1266
rradius 90.9786
rwrist -44.2582
rhand -57.0022 22.2625
rfingers 7.12502
rthumb -29.2936 -5.45039
lclavicle -1.27222e-014 -6.36111e-015
lhumerus 78.8684 -62.2302 43.6894
lradius 27.1558
lwrist -1.96763
lhand -12.0481 10.4826
lfingers 7.12502
lthumb -165.989 -140.01
rfemur -31.2592 12.7554 22.9445
rtibia 29.0063
rfoot -8.32835 12.521
rtoes 8.41593
lfemur -8.6499 15.8514 5.06527
ltibia 30.2639
lfoot -8.03682 19.6524
ltoes -28.7746
241
root -6.61157 17.7373 1.73046 -4.12687 53.0499 -18.3847
lowerback 1.32193 -6.46136 -10.9128
upperback 3.75306 -8.46053 -0.532861
thorax 4.72662 -4.56519 5.12081
lowerneck -8.40004 16.5974 4.22365
upperneck 25.8718 27.4562 -13.6029
head 12.6309 11.4072 -1.58198
rclavicle -1.35174e-014 3.49861e-014
rhumerus -5.24393 -10.4882 -86.9706
rradius 92.0349
rwrist -42.8943
rhand -56.9779 23.5663
rfingers 7.12502
rthumb -29.2704 -4.1506
lclavicle -1.35174e-014 3.49861e-014
lhumerus 80.0091 -61.4975 43.2871
lradius 27.4011
lwrist -2.62277
lhand -12.8234 9.51051
lfingers 7.12502
lthumb -166.737 -140.932
rfemur -31.2024 12.7866 23.0036
rtibia 29.0036
rfoot -8.22264 12.9392
rtoes 9.16581
lfemur -8.2614 15.4949 5.15137
ltibia 30.3467
lfoot -8.38038 19.5185
ltoes -28.2437
242
root -6.60853 17.7393 1.77004 -3.99185 52.6066 -18.2452
lowerback 1.22542 -6.58507 -11.0011
upperback 3.69774 -8.61173 -0.628844
thorax 4.74772 -4.63836 5.0468
lowerneck -8.26206 16.8248 4.32944
upperneck 25.3909 27.6786 -13.7396
head 12.4729 11.5408 -1.61841
rclavicle -7.07673e-014 9.54166e-015
rhumerus -4.61219 -11.0778 -86.942
rradius 93.1882
rwrist -41.4457
rhand -56.7989 24.484
rfingers 7.12502
rthumb -29.0994 -3.26258
lclavicle -7.07673e-014 9.54166e-015
lhumerus 81.3658 -60.7753 42.749
lradius 27.5323
lwrist -3.36651
lhand -13.1822 8.37835
lfingers 7.12502
lthumb -167.082 -142.041
rfemur -31.1516 13.0452 23.1445
rtibia 29.0415
rfoot -8.20064 13.2276
rtoes 9.88776
lfemur -7.96756 15.4252 5.31355
ltibia 30.3946
lfoot -8.0415 19.6317
ltoes -28.8974
243
root -6.60728 17.7466 1.81198 -4.03261 52.1795 -18.2861
lowerback 1.27896 -6.65451 -11.3023
upperback 2.93782 -8.75852 -0.744673
thorax 3.96098 -4.65426 5.14449
lowerneck -5.4271 16.71 6.03392
upperneck 24.6472 27.3636 -14.5935
head 11.9976 11.7084 -2.44922
rclavicle -2.0276e-014 2.22639e-014
rhumerus -5.33342 -11.221 -86.2527
rradius 94.1324
rwrist -40.1033
rhand -57.2618 25.5646
rfingers 7.12502
rthumb -29.5414 -2.10474
lclavicle -2.0276e-014 2.22639e-014
lhumerus 80.3045 -61.4146 44.5029
lradius 27.5867
lwrist -4.58937
lhand -13.7181 7.38534
lfingers 7.12502
lthumb -167.599 -143.002
rfemur -31.0738 13.3633 23.4037
rtibia 29.1167
rfoot -8.26272 13.3753
rtoes 10.3069
lfemur -7.76493 15.6132 5.56364
ltibia 30.4178
lfoot -6.8304 19.8791
ltoes -31.2058
244
root -6.60513 17.7439 1.8526 -4.03106 51.7598 -18.2035
lowerback 1.34519 -6.88523 -11.1173
upperback 3.58792 -9.03354 -0.632858
thorax 4.65641 -4.84357 5.09043
lowerneck -8.40804 17.2172 4.15504
upperneck 24.782 28.1602 -13.9035
head 12.3133 11.7496 -1.55723
rclavicle 0 5.40694e-014
rhumerus -2.51023 -10.8469 -86.0629
rradius 94.7509
rwrist -38.3785
rhand -57.9388 26.3046
rfingers 7.12502
rthumb -30.1875 -1.24853
lclavicle 0 5.40694e-014
lhumerus 83.0335 -59.2999 42.9535
lradius 27.7499
lwrist -5.38336
lhand -14.5251 6.63743
lfingers 7.12502
lthumb -168.377 -143.705
rfemur -30.9607 13.6136 23.6075
rtibia 29.197
rfoot -8.28319 13.5168
rtoes 10.7244
lfemur -7.36814 15.5008 5.80394
ltibia 30.4392
lfoot -6.48747 19.8569
ltoes -31.7073
245
root -6.60201 17.7342 1.89103 -3.87121 51.3619 -18.0184
lowerback 1.32644 -7.022 -11.2128
upperback 3.45131 -9.21948 -0.692464
thorax 4.56006 -4.92741 5.0713
lowerneck -8.40034 17.3846 4.15457
upperneck 24.6301 28.3686 -13.9213
head 12.277 11.8482 -1.52707
rclavicle 1.98785e-014 -6.36111e-015
rhumerus -1.67335 -10.919 -85.6605
rradius 95.5963
rwrist -37.0066
rhand -58.2983 27.2729
rfingers 7.12502
rthumb -30.5304 -0.216991
lclavicle 1.98785e-014 -6.36111e-015
lhumerus 83.7872 -58.734 43.1457
lradius 27.9704
lwrist -5.87297
lhand -14.8171 5.96542
lfingers 7.12502
lthumb -168.659 -144.361
rfemur -30.9557 13.7731 23.7231
rtibia 29.2932
rfoot -8.16282 13.7353
rtoes 11.787
lfemur -6.9133 15.1404 5.97414
ltibia 30.4312
lfoot -7.13747 19.684
ltoes -30.0131
246
root -6.59836 17.7331 1.92637 -3.47264 51.0298 -17.6546
lowerback 1.25746 -7.1858 -11.3374
upperback 3.31277 -9.43281 -0.786126
thorax 4.49416 -5.02525 5.02272
lowerneck -8.5532 17.5829 4.07816
upperneck 24.446 28.6253 -13.9343
head 12.2517 11.9535 -1.46199
rclavicle -8.26944e-014 -9.54166e-015
rhumerus -0.747765 -11.1227 -85.2486
rradius 96.3866
rwrist -35.879
rhand -58.3947 28.5368
rfingers 7.12502
rthumb -30.6223 1.06405
lclavicle -8.26944e-014 -9.54166e-015
lhumerus 84.8463 -58.0831 42.9089
lradius 28.3058
lwrist -6.13575
lhand -14.9965 5.44873
lfingers 7.12502
lthumb -168.832 -144.868
rfemur -31.0741 13.8577 23.672
rtibia 29.4269
rfoot -8.11335 14.0234
rtoes 12.3743
lfemur -6.64026 15.0249 5.91762
ltibia 30.3574
lfoot -7.28427 19.6165
ltoes -29.0894
